<mxfile host="app.diagrams.net" modified="2021-06-23T17:17:45.577Z" agent="5.0 (Macintosh; Intel Mac OS X 10_15_7) AppleWebKit/537.36 (KHTML, like Gecko) Chrome/81.0.4044.138 Safari/537.36" etag="FEz5W3zi8iiRY_7tYOe1" version="14.8.0" type="github">
  <diagram id="diRu2HCSwEDi5vCVLPYC" name="Page-1">
    <mxGraphModel dx="2163" dy="1288" grid="1" gridSize="10" guides="1" tooltips="1" connect="1" arrows="1" fold="1" page="1" pageScale="1" pageWidth="827" pageHeight="1169" math="0" shadow="0">
      <root>
        <mxCell id="0" />
        <mxCell id="1" parent="0" />
        <mxCell id="SDwkRg94ncnZj0nEMJ3i-3" value="" style="rounded=0;whiteSpace=wrap;html=1;align=left;dashed=1;" vertex="1" parent="1">
          <mxGeometry x="290" y="809" width="1210" height="681" as="geometry" />
        </mxCell>
        <mxCell id="r4oQAWAfBS_EO5X1v5Ay-10" style="edgeStyle=orthogonalEdgeStyle;rounded=0;orthogonalLoop=1;jettySize=auto;html=1;exitX=1;exitY=0.5;exitDx=0;exitDy=0;" parent="1" source="r4oQAWAfBS_EO5X1v5Ay-2" target="r4oQAWAfBS_EO5X1v5Ay-9" edge="1">
          <mxGeometry relative="1" as="geometry" />
        </mxCell>
        <mxCell id="r4oQAWAfBS_EO5X1v5Ay-2" value="&lt;font face=&quot;Comic Sans MS&quot; style=&quot;font-size: 18px&quot;&gt;Source&lt;/font&gt;" style="rounded=1;whiteSpace=wrap;html=1;" parent="1" vertex="1">
          <mxGeometry x="170" y="221.25" width="90" height="40" as="geometry" />
        </mxCell>
        <mxCell id="r4oQAWAfBS_EO5X1v5Ay-24" style="edgeStyle=orthogonalEdgeStyle;rounded=0;orthogonalLoop=1;jettySize=auto;html=1;exitX=1;exitY=0.5;exitDx=0;exitDy=0;" parent="1" source="r4oQAWAfBS_EO5X1v5Ay-3" edge="1">
          <mxGeometry relative="1" as="geometry">
            <mxPoint x="280" y="397" as="targetPoint" />
          </mxGeometry>
        </mxCell>
        <mxCell id="r4oQAWAfBS_EO5X1v5Ay-3" value="&lt;font face=&quot;Comic Sans MS&quot; style=&quot;font-size: 18px&quot;&gt;Target&lt;/font&gt;" style="rounded=1;whiteSpace=wrap;html=1;" parent="1" vertex="1">
          <mxGeometry x="170" y="377" width="90" height="40" as="geometry" />
        </mxCell>
        <mxCell id="r4oQAWAfBS_EO5X1v5Ay-15" style="edgeStyle=orthogonalEdgeStyle;rounded=0;orthogonalLoop=1;jettySize=auto;html=1;exitX=0.5;exitY=0;exitDx=0;exitDy=0;" parent="1" source="r4oQAWAfBS_EO5X1v5Ay-8" edge="1">
          <mxGeometry relative="1" as="geometry">
            <mxPoint x="440" y="241" as="targetPoint" />
          </mxGeometry>
        </mxCell>
        <mxCell id="r4oQAWAfBS_EO5X1v5Ay-8" value="" style="shape=trapezoid;perimeter=trapezoidPerimeter;whiteSpace=wrap;html=1;fixedSize=1;rotation=90;" parent="1" vertex="1">
          <mxGeometry x="290" y="201.25" width="120" height="80" as="geometry" />
        </mxCell>
        <mxCell id="r4oQAWAfBS_EO5X1v5Ay-9" value="&lt;font style=&quot;font-size: 18px&quot; face=&quot;Comic Sans MS&quot;&gt;ArcFace&lt;/font&gt;" style="text;html=1;resizable=0;autosize=1;align=center;verticalAlign=middle;points=[];fillColor=none;strokeColor=none;rounded=0;" parent="1" vertex="1">
          <mxGeometry x="305" y="231.25" width="90" height="20" as="geometry" />
        </mxCell>
        <mxCell id="r4oQAWAfBS_EO5X1v5Ay-11" value="" style="shape=cube;whiteSpace=wrap;html=1;boundedLbl=1;backgroundOutline=1;darkOpacity=0.05;darkOpacity2=0.1;size=10;" parent="1" vertex="1">
          <mxGeometry x="450" y="190" width="30" height="102.5" as="geometry" />
        </mxCell>
        <mxCell id="r4oQAWAfBS_EO5X1v5Ay-16" value="&lt;font style=&quot;font-size: 18px&quot; face=&quot;Comic Sans MS&quot;&gt;Identity Vector&lt;/font&gt;" style="text;html=1;resizable=0;autosize=1;align=center;verticalAlign=middle;points=[];fillColor=none;strokeColor=none;rounded=0;" parent="1" vertex="1">
          <mxGeometry x="390" y="160" width="150" height="20" as="geometry" />
        </mxCell>
        <mxCell id="r4oQAWAfBS_EO5X1v5Ay-17" value="" style="shape=cube;whiteSpace=wrap;html=1;boundedLbl=1;backgroundOutline=1;darkOpacity=0.05;darkOpacity2=0.1;" parent="1" vertex="1">
          <mxGeometry x="290" y="347" width="30" height="100" as="geometry" />
        </mxCell>
        <mxCell id="r4oQAWAfBS_EO5X1v5Ay-19" value="" style="shape=cube;whiteSpace=wrap;html=1;boundedLbl=1;backgroundOutline=1;darkOpacity=0.05;darkOpacity2=0.1;" parent="1" vertex="1">
          <mxGeometry x="328.5" y="357" width="33" height="80" as="geometry" />
        </mxCell>
        <mxCell id="r4oQAWAfBS_EO5X1v5Ay-20" value="" style="shape=cube;whiteSpace=wrap;html=1;boundedLbl=1;backgroundOutline=1;darkOpacity=0.05;darkOpacity2=0.1;" parent="1" vertex="1">
          <mxGeometry x="367" y="367" width="36" height="60" as="geometry" />
        </mxCell>
        <mxCell id="r4oQAWAfBS_EO5X1v5Ay-65" style="edgeStyle=orthogonalEdgeStyle;rounded=0;orthogonalLoop=1;jettySize=auto;html=1;exitX=0;exitY=0;exitDx=20;exitDy=10;exitPerimeter=0;entryX=0.283;entryY=0.995;entryDx=0;entryDy=0;entryPerimeter=0;" parent="1" source="r4oQAWAfBS_EO5X1v5Ay-21" target="r4oQAWAfBS_EO5X1v5Ay-58" edge="1">
          <mxGeometry relative="1" as="geometry" />
        </mxCell>
        <mxCell id="r4oQAWAfBS_EO5X1v5Ay-21" value="" style="shape=cube;whiteSpace=wrap;html=1;boundedLbl=1;backgroundOutline=1;darkOpacity=0.05;darkOpacity2=0.1;" parent="1" vertex="1">
          <mxGeometry x="500" y="347" width="30" height="100" as="geometry" />
        </mxCell>
        <mxCell id="r4oQAWAfBS_EO5X1v5Ay-54" style="edgeStyle=orthogonalEdgeStyle;rounded=0;orthogonalLoop=1;jettySize=auto;html=1;exitX=0;exitY=0;exitDx=23;exitDy=10;exitPerimeter=0;entryX=0.25;entryY=1;entryDx=0;entryDy=0;" parent="1" source="r4oQAWAfBS_EO5X1v5Ay-22" target="r4oQAWAfBS_EO5X1v5Ay-52" edge="1">
          <mxGeometry relative="1" as="geometry">
            <Array as="points">
              <mxPoint x="480" y="330" />
              <mxPoint x="757" y="330" />
            </Array>
          </mxGeometry>
        </mxCell>
        <mxCell id="r4oQAWAfBS_EO5X1v5Ay-22" value="" style="shape=cube;whiteSpace=wrap;html=1;boundedLbl=1;backgroundOutline=1;darkOpacity=0.05;darkOpacity2=0.1;" parent="1" vertex="1">
          <mxGeometry x="457" y="357" width="33" height="80" as="geometry" />
        </mxCell>
        <mxCell id="r4oQAWAfBS_EO5X1v5Ay-49" style="edgeStyle=orthogonalEdgeStyle;rounded=0;orthogonalLoop=1;jettySize=auto;html=1;exitX=0;exitY=0;exitDx=26;exitDy=10;exitPerimeter=0;entryX=0.25;entryY=1;entryDx=0;entryDy=0;" parent="1" source="r4oQAWAfBS_EO5X1v5Ay-23" target="r4oQAWAfBS_EO5X1v5Ay-39" edge="1">
          <mxGeometry relative="1" as="geometry">
            <Array as="points">
              <mxPoint x="440" y="320" />
              <mxPoint x="621" y="320" />
            </Array>
          </mxGeometry>
        </mxCell>
        <mxCell id="r4oQAWAfBS_EO5X1v5Ay-23" value="" style="shape=cube;whiteSpace=wrap;html=1;boundedLbl=1;backgroundOutline=1;darkOpacity=0.05;darkOpacity2=0.1;" parent="1" vertex="1">
          <mxGeometry x="414" y="367" width="36" height="60" as="geometry" />
        </mxCell>
        <mxCell id="r4oQAWAfBS_EO5X1v5Ay-33" style="edgeStyle=orthogonalEdgeStyle;rounded=0;orthogonalLoop=1;jettySize=auto;html=1;exitX=0;exitY=0;exitDx=30;exitDy=56.25;exitPerimeter=0;" parent="1" source="r4oQAWAfBS_EO5X1v5Ay-25" edge="1">
          <mxGeometry relative="1" as="geometry">
            <mxPoint x="420" y="526" as="targetPoint" />
          </mxGeometry>
        </mxCell>
        <mxCell id="r4oQAWAfBS_EO5X1v5Ay-25" value="" style="shape=cube;whiteSpace=wrap;html=1;boundedLbl=1;backgroundOutline=1;darkOpacity=0.05;darkOpacity2=0.1;size=10;" parent="1" vertex="1">
          <mxGeometry x="370" y="470" width="30" height="102.5" as="geometry" />
        </mxCell>
        <mxCell id="r4oQAWAfBS_EO5X1v5Ay-26" value="&lt;font style=&quot;font-size: 18px&quot; face=&quot;Comic Sans MS&quot;&gt;Attribute Vector&lt;/font&gt;" style="text;html=1;resizable=0;autosize=1;align=center;verticalAlign=middle;points=[];fillColor=none;strokeColor=none;rounded=0;" parent="1" vertex="1">
          <mxGeometry x="297" y="585" width="160" height="20" as="geometry" />
        </mxCell>
        <mxCell id="r4oQAWAfBS_EO5X1v5Ay-64" style="edgeStyle=orthogonalEdgeStyle;rounded=0;orthogonalLoop=1;jettySize=auto;html=1;exitX=0;exitY=0;exitDx=20;exitDy=10;exitPerimeter=0;" parent="1" source="r4oQAWAfBS_EO5X1v5Ay-27" target="r4oQAWAfBS_EO5X1v5Ay-58" edge="1">
          <mxGeometry relative="1" as="geometry" />
        </mxCell>
        <mxCell id="r4oQAWAfBS_EO5X1v5Ay-27" value="" style="shape=cube;whiteSpace=wrap;html=1;boundedLbl=1;backgroundOutline=1;darkOpacity=0.05;darkOpacity2=0.1;" parent="1" vertex="1">
          <mxGeometry x="512" y="479" width="30" height="100" as="geometry" />
        </mxCell>
        <mxCell id="r4oQAWAfBS_EO5X1v5Ay-55" style="edgeStyle=orthogonalEdgeStyle;rounded=0;orthogonalLoop=1;jettySize=auto;html=1;exitX=0;exitY=0;exitDx=23;exitDy=10;exitPerimeter=0;entryX=0.5;entryY=1;entryDx=0;entryDy=0;" parent="1" source="r4oQAWAfBS_EO5X1v5Ay-28" target="r4oQAWAfBS_EO5X1v5Ay-52" edge="1">
          <mxGeometry relative="1" as="geometry">
            <Array as="points">
              <mxPoint x="492" y="460" />
              <mxPoint x="784" y="460" />
            </Array>
          </mxGeometry>
        </mxCell>
        <mxCell id="r4oQAWAfBS_EO5X1v5Ay-28" value="" style="shape=cube;whiteSpace=wrap;html=1;boundedLbl=1;backgroundOutline=1;darkOpacity=0.05;darkOpacity2=0.1;" parent="1" vertex="1">
          <mxGeometry x="469" y="489" width="33" height="80" as="geometry" />
        </mxCell>
        <mxCell id="r4oQAWAfBS_EO5X1v5Ay-48" style="edgeStyle=orthogonalEdgeStyle;rounded=0;orthogonalLoop=1;jettySize=auto;html=1;exitX=0;exitY=0;exitDx=26;exitDy=10;exitPerimeter=0;entryX=0.5;entryY=1;entryDx=0;entryDy=0;" parent="1" source="r4oQAWAfBS_EO5X1v5Ay-29" target="r4oQAWAfBS_EO5X1v5Ay-39" edge="1">
          <mxGeometry relative="1" as="geometry">
            <Array as="points">
              <mxPoint x="452" y="450" />
              <mxPoint x="643" y="450" />
            </Array>
          </mxGeometry>
        </mxCell>
        <mxCell id="r4oQAWAfBS_EO5X1v5Ay-29" value="" style="shape=cube;whiteSpace=wrap;html=1;boundedLbl=1;backgroundOutline=1;darkOpacity=0.05;darkOpacity2=0.1;" parent="1" vertex="1">
          <mxGeometry x="426" y="499" width="36" height="60" as="geometry" />
        </mxCell>
        <mxCell id="r4oQAWAfBS_EO5X1v5Ay-63" style="edgeStyle=orthogonalEdgeStyle;rounded=0;orthogonalLoop=1;jettySize=auto;html=1;exitX=0;exitY=0;exitDx=20;exitDy=10;exitPerimeter=0;entryX=0.75;entryY=1;entryDx=0;entryDy=0;" parent="1" source="r4oQAWAfBS_EO5X1v5Ay-35" target="r4oQAWAfBS_EO5X1v5Ay-58" edge="1">
          <mxGeometry relative="1" as="geometry" />
        </mxCell>
        <mxCell id="r4oQAWAfBS_EO5X1v5Ay-35" value="" style="shape=cube;whiteSpace=wrap;html=1;boundedLbl=1;backgroundOutline=1;darkOpacity=0.05;darkOpacity2=0.1;" parent="1" vertex="1">
          <mxGeometry x="513.5" y="630" width="30" height="100" as="geometry" />
        </mxCell>
        <mxCell id="r4oQAWAfBS_EO5X1v5Ay-56" style="edgeStyle=orthogonalEdgeStyle;rounded=0;orthogonalLoop=1;jettySize=auto;html=1;exitX=0;exitY=0;exitDx=13;exitDy=0;exitPerimeter=0;entryX=0.75;entryY=1;entryDx=0;entryDy=0;" parent="1" source="r4oQAWAfBS_EO5X1v5Ay-36" target="r4oQAWAfBS_EO5X1v5Ay-52" edge="1">
          <mxGeometry relative="1" as="geometry">
            <Array as="points">
              <mxPoint x="484" y="590" />
              <mxPoint x="811" y="590" />
            </Array>
          </mxGeometry>
        </mxCell>
        <mxCell id="r4oQAWAfBS_EO5X1v5Ay-36" value="" style="shape=cube;whiteSpace=wrap;html=1;boundedLbl=1;backgroundOutline=1;darkOpacity=0.05;darkOpacity2=0.1;" parent="1" vertex="1">
          <mxGeometry x="470.5" y="640" width="33" height="80" as="geometry" />
        </mxCell>
        <mxCell id="r4oQAWAfBS_EO5X1v5Ay-47" style="edgeStyle=orthogonalEdgeStyle;rounded=0;orthogonalLoop=1;jettySize=auto;html=1;exitX=0;exitY=0;exitDx=26;exitDy=10;exitPerimeter=0;entryX=0.75;entryY=1;entryDx=0;entryDy=0;" parent="1" source="r4oQAWAfBS_EO5X1v5Ay-37" target="r4oQAWAfBS_EO5X1v5Ay-39" edge="1">
          <mxGeometry relative="1" as="geometry">
            <Array as="points">
              <mxPoint x="454" y="580" />
              <mxPoint x="664" y="580" />
            </Array>
          </mxGeometry>
        </mxCell>
        <mxCell id="r4oQAWAfBS_EO5X1v5Ay-37" value="" style="shape=cube;whiteSpace=wrap;html=1;boundedLbl=1;backgroundOutline=1;darkOpacity=0.05;darkOpacity2=0.1;" parent="1" vertex="1">
          <mxGeometry x="427.5" y="650" width="36" height="60" as="geometry" />
        </mxCell>
        <mxCell id="r4oQAWAfBS_EO5X1v5Ay-38" value="&lt;font style=&quot;font-size: 18px&quot; face=&quot;Comic Sans MS&quot;&gt;Feature from IEN&lt;/font&gt;" style="text;html=1;resizable=0;autosize=1;align=center;verticalAlign=middle;points=[];fillColor=none;strokeColor=none;rounded=0;" parent="1" vertex="1">
          <mxGeometry x="405" y="740" width="170" height="20" as="geometry" />
        </mxCell>
        <mxCell id="r4oQAWAfBS_EO5X1v5Ay-53" style="edgeStyle=orthogonalEdgeStyle;rounded=0;orthogonalLoop=1;jettySize=auto;html=1;exitX=1;exitY=0.5;exitDx=0;exitDy=0;entryX=0;entryY=0.5;entryDx=0;entryDy=0;" parent="1" source="r4oQAWAfBS_EO5X1v5Ay-39" target="r4oQAWAfBS_EO5X1v5Ay-52" edge="1">
          <mxGeometry relative="1" as="geometry" />
        </mxCell>
        <mxCell id="r4oQAWAfBS_EO5X1v5Ay-39" value="&lt;font style=&quot;font-size: 18px&quot; face=&quot;Comic Sans MS&quot;&gt;MDFFM&lt;/font&gt;" style="rounded=1;whiteSpace=wrap;html=1;" parent="1" vertex="1">
          <mxGeometry x="600" y="270" width="85" height="37" as="geometry" />
        </mxCell>
        <mxCell id="r4oQAWAfBS_EO5X1v5Ay-51" style="edgeStyle=orthogonalEdgeStyle;rounded=0;orthogonalLoop=1;jettySize=auto;html=1;exitX=0;exitY=0;exitDx=30;exitDy=56.25;exitPerimeter=0;entryX=0;entryY=0.5;entryDx=0;entryDy=0;" parent="1" source="r4oQAWAfBS_EO5X1v5Ay-11" target="r4oQAWAfBS_EO5X1v5Ay-39" edge="1">
          <mxGeometry relative="1" as="geometry">
            <mxPoint x="480" y="265" as="sourcePoint" />
            <mxPoint x="642.5" y="280" as="targetPoint" />
            <Array as="points">
              <mxPoint x="480" y="241" />
              <mxPoint x="540" y="241" />
              <mxPoint x="540" y="289" />
            </Array>
          </mxGeometry>
        </mxCell>
        <mxCell id="r4oQAWAfBS_EO5X1v5Ay-60" style="edgeStyle=orthogonalEdgeStyle;rounded=0;orthogonalLoop=1;jettySize=auto;html=1;exitX=1;exitY=0.5;exitDx=0;exitDy=0;entryX=0;entryY=0.5;entryDx=0;entryDy=0;" parent="1" source="r4oQAWAfBS_EO5X1v5Ay-52" target="r4oQAWAfBS_EO5X1v5Ay-58" edge="1">
          <mxGeometry relative="1" as="geometry" />
        </mxCell>
        <mxCell id="r4oQAWAfBS_EO5X1v5Ay-52" value="&lt;font style=&quot;font-size: 18px&quot; face=&quot;Comic Sans MS&quot;&gt;MDFFM&lt;/font&gt;" style="rounded=1;whiteSpace=wrap;html=1;" parent="1" vertex="1">
          <mxGeometry x="730" y="263.5" width="108" height="50" as="geometry" />
        </mxCell>
        <mxCell id="r4oQAWAfBS_EO5X1v5Ay-57" style="edgeStyle=orthogonalEdgeStyle;rounded=0;orthogonalLoop=1;jettySize=auto;html=1;entryX=0.5;entryY=0;entryDx=0;entryDy=0;" parent="1" target="r4oQAWAfBS_EO5X1v5Ay-52" edge="1">
          <mxGeometry relative="1" as="geometry">
            <mxPoint x="480" y="240" as="sourcePoint" />
            <mxPoint x="690.5" y="218.75" as="targetPoint" />
            <Array as="points">
              <mxPoint x="784" y="240" />
            </Array>
          </mxGeometry>
        </mxCell>
        <mxCell id="r4oQAWAfBS_EO5X1v5Ay-70" style="edgeStyle=orthogonalEdgeStyle;rounded=0;orthogonalLoop=1;jettySize=auto;html=1;exitX=1;exitY=0.5;exitDx=0;exitDy=0;entryX=0;entryY=0.5;entryDx=0;entryDy=0;" parent="1" source="r4oQAWAfBS_EO5X1v5Ay-58" target="r4oQAWAfBS_EO5X1v5Ay-67" edge="1">
          <mxGeometry relative="1" as="geometry" />
        </mxCell>
        <mxCell id="r4oQAWAfBS_EO5X1v5Ay-58" value="&lt;font style=&quot;font-size: 18px&quot; face=&quot;Comic Sans MS&quot;&gt;MDFFM&lt;/font&gt;" style="rounded=1;whiteSpace=wrap;html=1;" parent="1" vertex="1">
          <mxGeometry x="880" y="255.25" width="120" height="64.75" as="geometry" />
        </mxCell>
        <mxCell id="r4oQAWAfBS_EO5X1v5Ay-59" style="edgeStyle=orthogonalEdgeStyle;rounded=0;orthogonalLoop=1;jettySize=auto;html=1;entryX=0.5;entryY=0;entryDx=0;entryDy=0;exitX=0.967;exitY=0.478;exitDx=0;exitDy=0;exitPerimeter=0;" parent="1" source="r4oQAWAfBS_EO5X1v5Ay-11" target="r4oQAWAfBS_EO5X1v5Ay-58" edge="1">
          <mxGeometry relative="1" as="geometry">
            <mxPoint x="480" y="250" as="sourcePoint" />
            <mxPoint x="794" y="240" as="targetPoint" />
            <Array as="points">
              <mxPoint x="479" y="240" />
              <mxPoint x="940" y="240" />
            </Array>
          </mxGeometry>
        </mxCell>
        <mxCell id="r4oQAWAfBS_EO5X1v5Ay-62" style="edgeStyle=orthogonalEdgeStyle;rounded=0;orthogonalLoop=1;jettySize=auto;html=1;entryX=0.5;entryY=0;entryDx=0;entryDy=0;" parent="1" target="r4oQAWAfBS_EO5X1v5Ay-39" edge="1">
          <mxGeometry relative="1" as="geometry">
            <mxPoint x="480" y="240" as="sourcePoint" />
            <mxPoint x="610" y="298.5" as="targetPoint" />
            <Array as="points">
              <mxPoint x="643" y="240" />
            </Array>
          </mxGeometry>
        </mxCell>
        <mxCell id="r4oQAWAfBS_EO5X1v5Ay-67" value="&lt;font face=&quot;Comic Sans MS&quot; style=&quot;font-size: 18px&quot;&gt;Swapping Image&lt;/font&gt;" style="rounded=1;whiteSpace=wrap;html=1;" parent="1" vertex="1">
          <mxGeometry x="1050" y="261.12" width="100" height="53" as="geometry" />
        </mxCell>
        <mxCell id="Ovq9rvj37aN0vvkYCeVm-4" style="rounded=0;orthogonalLoop=1;jettySize=auto;html=1;exitX=0;exitY=0;exitDx=120;exitDy=20;exitPerimeter=0;entryX=0;entryY=0;entryDx=0;entryDy=20;entryPerimeter=0;" parent="1" source="Ovq9rvj37aN0vvkYCeVm-1" target="Ovq9rvj37aN0vvkYCeVm-2" edge="1">
          <mxGeometry relative="1" as="geometry" />
        </mxCell>
        <mxCell id="Ovq9rvj37aN0vvkYCeVm-7" style="edgeStyle=none;rounded=0;orthogonalLoop=1;jettySize=auto;html=1;exitX=0;exitY=0;exitDx=120.00000000000001;exitDy=20;exitPerimeter=0;entryX=0;entryY=0;entryDx=0;entryDy=20.000000000000004;entryPerimeter=0;" parent="1" source="Ovq9rvj37aN0vvkYCeVm-1" target="Ovq9rvj37aN0vvkYCeVm-6" edge="1">
          <mxGeometry relative="1" as="geometry" />
        </mxCell>
        <mxCell id="Ovq9rvj37aN0vvkYCeVm-10" value="&lt;font face=&quot;Comic Sans MS&quot;&gt;FC&lt;/font&gt;" style="edgeLabel;html=1;align=center;verticalAlign=middle;resizable=0;points=[];" parent="Ovq9rvj37aN0vvkYCeVm-7" vertex="1" connectable="0">
          <mxGeometry x="0.044" y="6" relative="1" as="geometry">
            <mxPoint x="-14" y="14" as="offset" />
          </mxGeometry>
        </mxCell>
        <mxCell id="Ovq9rvj37aN0vvkYCeVm-1" value="" style="shape=cube;whiteSpace=wrap;html=1;boundedLbl=1;backgroundOutline=1;darkOpacity=0.05;darkOpacity2=0.1;size=10;" parent="1" vertex="1">
          <mxGeometry x="520" y="829" width="120" height="30" as="geometry" />
        </mxCell>
        <mxCell id="Ovq9rvj37aN0vvkYCeVm-36" style="edgeStyle=none;rounded=0;orthogonalLoop=1;jettySize=auto;html=1;exitX=0;exitY=0;exitDx=65;exitDy=30;exitPerimeter=0;entryX=0.485;entryY=-0.069;entryDx=0;entryDy=0;entryPerimeter=0;" parent="1" source="Ovq9rvj37aN0vvkYCeVm-2" target="Ovq9rvj37aN0vvkYCeVm-32" edge="1">
          <mxGeometry relative="1" as="geometry">
            <mxPoint x="914.8571428571429" y="910" as="targetPoint" />
          </mxGeometry>
        </mxCell>
        <mxCell id="Ovq9rvj37aN0vvkYCeVm-2" value="" style="shape=cube;whiteSpace=wrap;html=1;boundedLbl=1;backgroundOutline=1;darkOpacity=0.05;darkOpacity2=0.1;size=10;" parent="1" vertex="1">
          <mxGeometry x="850" y="829" width="120" height="30" as="geometry" />
        </mxCell>
        <mxCell id="Ovq9rvj37aN0vvkYCeVm-3" value="&lt;font style=&quot;font-size: 18px&quot; face=&quot;Comic Sans MS&quot;&gt;Identity Vector&lt;/font&gt;" style="text;html=1;resizable=0;autosize=1;align=center;verticalAlign=middle;points=[];fillColor=none;strokeColor=none;rounded=0;" parent="1" vertex="1">
          <mxGeometry x="495" y="869" width="150" height="20" as="geometry" />
        </mxCell>
        <mxCell id="Ovq9rvj37aN0vvkYCeVm-5" value="" style="endArrow=classic;html=1;entryX=-0.067;entryY=0.5;entryDx=0;entryDy=0;entryPerimeter=0;" parent="1" target="Ovq9rvj37aN0vvkYCeVm-63" edge="1">
          <mxGeometry width="50" height="50" relative="1" as="geometry">
            <mxPoint x="880" y="1210" as="sourcePoint" />
            <mxPoint x="930" y="1160" as="targetPoint" />
          </mxGeometry>
        </mxCell>
        <mxCell id="Ovq9rvj37aN0vvkYCeVm-17" style="edgeStyle=orthogonalEdgeStyle;rounded=0;orthogonalLoop=1;jettySize=auto;html=1;exitX=0;exitY=0;exitDx=65;exitDy=30;exitPerimeter=0;entryX=0.5;entryY=0;entryDx=0;entryDy=0;" parent="1" source="Ovq9rvj37aN0vvkYCeVm-6" target="Ovq9rvj37aN0vvkYCeVm-16" edge="1">
          <mxGeometry relative="1" as="geometry" />
        </mxCell>
        <mxCell id="Ovq9rvj37aN0vvkYCeVm-6" value="" style="shape=cube;whiteSpace=wrap;html=1;boundedLbl=1;backgroundOutline=1;darkOpacity=0.05;darkOpacity2=0.1;size=10;" parent="1" vertex="1">
          <mxGeometry x="700" y="869" width="120" height="30" as="geometry" />
        </mxCell>
        <mxCell id="Ovq9rvj37aN0vvkYCeVm-11" value="&lt;font face=&quot;Comic Sans MS&quot;&gt;FC&lt;/font&gt;" style="edgeLabel;html=1;align=center;verticalAlign=middle;resizable=0;points=[];" parent="1" vertex="1" connectable="0">
          <mxGeometry x="750.0029263956144" y="839.0008483794817" as="geometry">
            <mxPoint x="-11" y="-4" as="offset" />
          </mxGeometry>
        </mxCell>
        <mxCell id="Ovq9rvj37aN0vvkYCeVm-15" style="edgeStyle=orthogonalEdgeStyle;rounded=0;orthogonalLoop=1;jettySize=auto;html=1;exitX=0;exitY=0;exitDx=30.000000000000004;exitDy=60;exitPerimeter=0;entryX=0.5;entryY=0;entryDx=0;entryDy=0;" parent="1" source="Ovq9rvj37aN0vvkYCeVm-12" target="Ovq9rvj37aN0vvkYCeVm-78" edge="1">
          <mxGeometry relative="1" as="geometry">
            <mxPoint x="1160" y="940" as="targetPoint" />
            <Array as="points">
              <mxPoint x="410" y="1000" />
              <mxPoint x="500" y="1000" />
              <mxPoint x="500" y="940" />
              <mxPoint x="1120" y="940" />
            </Array>
          </mxGeometry>
        </mxCell>
        <mxCell id="Ovq9rvj37aN0vvkYCeVm-12" value="" style="shape=cube;whiteSpace=wrap;html=1;boundedLbl=1;backgroundOutline=1;darkOpacity=0.05;darkOpacity2=0.1;" parent="1" vertex="1">
          <mxGeometry x="380" y="950" width="30" height="100" as="geometry" />
        </mxCell>
        <mxCell id="Ovq9rvj37aN0vvkYCeVm-13" value="&lt;font style=&quot;font-size: 18px&quot; face=&quot;Comic Sans MS&quot;&gt;Input feature&lt;/font&gt;" style="text;html=1;resizable=0;autosize=1;align=center;verticalAlign=middle;points=[];fillColor=none;strokeColor=none;rounded=0;" parent="1" vertex="1">
          <mxGeometry x="333.5" y="1070" width="130" height="20" as="geometry" />
        </mxCell>
        <mxCell id="Ovq9rvj37aN0vvkYCeVm-16" value="" style="shape=sumEllipse;perimeter=ellipsePerimeter;whiteSpace=wrap;html=1;backgroundOutline=1;" parent="1" vertex="1">
          <mxGeometry x="740" y="920" width="40" height="40" as="geometry" />
        </mxCell>
        <mxCell id="Ovq9rvj37aN0vvkYCeVm-19" value="&lt;font style=&quot;font-size: 18px&quot; face=&quot;Comic Sans MS&quot;&gt;Attribute Feature&lt;/font&gt;" style="text;html=1;resizable=0;autosize=1;align=center;verticalAlign=middle;points=[];fillColor=none;strokeColor=none;rounded=0;" parent="1" vertex="1">
          <mxGeometry x="1110" y="1240" width="170" height="20" as="geometry" />
        </mxCell>
        <mxCell id="Ovq9rvj37aN0vvkYCeVm-32" value="" style="shape=orEllipse;perimeter=ellipsePerimeter;whiteSpace=wrap;html=1;backgroundOutline=1;" parent="1" vertex="1">
          <mxGeometry x="895" y="920" width="40" height="40" as="geometry" />
        </mxCell>
        <mxCell id="Ovq9rvj37aN0vvkYCeVm-59" style="edgeStyle=none;rounded=0;orthogonalLoop=1;jettySize=auto;html=1;exitX=1.05;exitY=0.494;exitDx=0;exitDy=0;exitPerimeter=0;entryX=0;entryY=0.5;entryDx=0;entryDy=0;entryPerimeter=0;" parent="1" source="Ovq9rvj37aN0vvkYCeVm-45" target="Ovq9rvj37aN0vvkYCeVm-65" edge="1">
          <mxGeometry relative="1" as="geometry">
            <mxPoint x="890" y="1210" as="targetPoint" />
          </mxGeometry>
        </mxCell>
        <mxCell id="Ovq9rvj37aN0vvkYCeVm-45" value="" style="shape=cube;whiteSpace=wrap;html=1;boundedLbl=1;backgroundOutline=1;darkOpacity=0.05;darkOpacity2=0.1;" parent="1" vertex="1">
          <mxGeometry x="593.5" y="1160" width="30" height="100" as="geometry" />
        </mxCell>
        <mxCell id="Ovq9rvj37aN0vvkYCeVm-46" value="&lt;font style=&quot;font-size: 18px&quot; face=&quot;Comic Sans MS&quot;&gt;Feature from Target&lt;/font&gt;" style="text;html=1;resizable=0;autosize=1;align=center;verticalAlign=middle;points=[];fillColor=none;strokeColor=none;rounded=0;" parent="1" vertex="1">
          <mxGeometry x="512" y="1270" width="190" height="20" as="geometry" />
        </mxCell>
        <mxCell id="Ovq9rvj37aN0vvkYCeVm-47" style="edgeStyle=orthogonalEdgeStyle;rounded=0;orthogonalLoop=1;jettySize=auto;html=1;exitX=0;exitY=0;exitDx=30;exitDy=60;exitPerimeter=0;" parent="1" source="Ovq9rvj37aN0vvkYCeVm-50" edge="1">
          <mxGeometry relative="1" as="geometry">
            <mxPoint x="808.5" y="1380" as="targetPoint" />
            <Array as="points">
              <mxPoint x="708.5" y="1380" />
            </Array>
          </mxGeometry>
        </mxCell>
        <mxCell id="Ovq9rvj37aN0vvkYCeVm-48" value="&lt;font face=&quot;Comic Sans MS&quot;&gt;Conv&lt;/font&gt;" style="edgeLabel;html=1;align=center;verticalAlign=middle;resizable=0;points=[];" parent="Ovq9rvj37aN0vvkYCeVm-47" vertex="1" connectable="0">
          <mxGeometry x="0.0848" y="2" relative="1" as="geometry">
            <mxPoint y="-8" as="offset" />
          </mxGeometry>
        </mxCell>
        <mxCell id="Ovq9rvj37aN0vvkYCeVm-49" style="rounded=0;orthogonalLoop=1;jettySize=auto;html=1;exitX=0;exitY=0;exitDx=20;exitDy=10;exitPerimeter=0;entryX=0;entryY=0;entryDx=0;entryDy=40;entryPerimeter=0;" parent="1" source="Ovq9rvj37aN0vvkYCeVm-50" target="Ovq9rvj37aN0vvkYCeVm-53" edge="1">
          <mxGeometry relative="1" as="geometry" />
        </mxCell>
        <mxCell id="Ovq9rvj37aN0vvkYCeVm-50" value="" style="shape=cube;whiteSpace=wrap;html=1;boundedLbl=1;backgroundOutline=1;darkOpacity=0.05;darkOpacity2=0.1;" parent="1" vertex="1">
          <mxGeometry x="678.5" y="1330" width="30" height="100" as="geometry" />
        </mxCell>
        <mxCell id="Ovq9rvj37aN0vvkYCeVm-51" value="&lt;font style=&quot;font-size: 18px&quot; face=&quot;Comic Sans MS&quot;&gt;Feature from IEN&lt;/font&gt;" style="text;html=1;resizable=0;autosize=1;align=center;verticalAlign=middle;points=[];fillColor=none;strokeColor=none;rounded=0;" parent="1" vertex="1">
          <mxGeometry x="603.5" y="1440" width="170" height="20" as="geometry" />
        </mxCell>
        <mxCell id="Ovq9rvj37aN0vvkYCeVm-52" style="edgeStyle=none;rounded=0;orthogonalLoop=1;jettySize=auto;html=1;exitX=0;exitY=0;exitDx=20;exitDy=10;exitPerimeter=0;" parent="1" source="Ovq9rvj37aN0vvkYCeVm-53" target="Ovq9rvj37aN0vvkYCeVm-57" edge="1">
          <mxGeometry relative="1" as="geometry" />
        </mxCell>
        <mxCell id="Ovq9rvj37aN0vvkYCeVm-53" value="" style="shape=cube;whiteSpace=wrap;html=1;boundedLbl=1;backgroundOutline=1;darkOpacity=0.05;darkOpacity2=0.1;" parent="1" vertex="1">
          <mxGeometry x="728.5" y="1250" width="30" height="100" as="geometry" />
        </mxCell>
        <mxCell id="Ovq9rvj37aN0vvkYCeVm-54" style="edgeStyle=none;rounded=0;orthogonalLoop=1;jettySize=auto;html=1;exitX=0;exitY=0;exitDx=20;exitDy=10;exitPerimeter=0;entryX=0.5;entryY=1;entryDx=0;entryDy=0;" parent="1" source="Ovq9rvj37aN0vvkYCeVm-55" target="Ovq9rvj37aN0vvkYCeVm-58" edge="1">
          <mxGeometry relative="1" as="geometry" />
        </mxCell>
        <mxCell id="Ovq9rvj37aN0vvkYCeVm-55" value="" style="shape=cube;whiteSpace=wrap;html=1;boundedLbl=1;backgroundOutline=1;darkOpacity=0.05;darkOpacity2=0.1;" parent="1" vertex="1">
          <mxGeometry x="809" y="1330" width="30" height="100" as="geometry" />
        </mxCell>
        <mxCell id="Ovq9rvj37aN0vvkYCeVm-56" value="&lt;font face=&quot;Comic Sans MS&quot;&gt;Conv&lt;/font&gt;" style="edgeLabel;html=1;align=center;verticalAlign=middle;resizable=0;points=[];" parent="1" vertex="1" connectable="0">
          <mxGeometry x="768.5000000000005" y="1379.9999999999998" as="geometry">
            <mxPoint x="-74" y="-75" as="offset" />
          </mxGeometry>
        </mxCell>
        <mxCell id="Ovq9rvj37aN0vvkYCeVm-57" value="" style="shape=sumEllipse;perimeter=ellipsePerimeter;whiteSpace=wrap;html=1;backgroundOutline=1;" parent="1" vertex="1">
          <mxGeometry x="728.5" y="1190" width="40" height="40" as="geometry" />
        </mxCell>
        <mxCell id="Ovq9rvj37aN0vvkYCeVm-58" value="" style="shape=orEllipse;perimeter=ellipsePerimeter;whiteSpace=wrap;html=1;backgroundOutline=1;" parent="1" vertex="1">
          <mxGeometry x="808.5" y="1190" width="40" height="40" as="geometry" />
        </mxCell>
        <mxCell id="Ovq9rvj37aN0vvkYCeVm-62" style="edgeStyle=none;rounded=0;orthogonalLoop=1;jettySize=auto;html=1;exitX=0;exitY=0;exitDx=20;exitDy=10;exitPerimeter=0;" parent="1" source="Ovq9rvj37aN0vvkYCeVm-63" edge="1">
          <mxGeometry relative="1" as="geometry">
            <mxPoint x="960" y="1070" as="targetPoint" />
          </mxGeometry>
        </mxCell>
        <mxCell id="Ovq9rvj37aN0vvkYCeVm-63" value="" style="shape=cube;whiteSpace=wrap;html=1;boundedLbl=1;backgroundOutline=1;darkOpacity=0.05;darkOpacity2=0.1;" parent="1" vertex="1">
          <mxGeometry x="940" y="1090" width="30" height="100" as="geometry" />
        </mxCell>
        <mxCell id="Ovq9rvj37aN0vvkYCeVm-64" style="edgeStyle=none;rounded=0;orthogonalLoop=1;jettySize=auto;html=1;exitX=0;exitY=0;exitDx=20;exitDy=10;exitPerimeter=0;" parent="1" source="Ovq9rvj37aN0vvkYCeVm-65" edge="1">
          <mxGeometry relative="1" as="geometry">
            <mxPoint x="1040" y="1070" as="targetPoint" />
          </mxGeometry>
        </mxCell>
        <mxCell id="Ovq9rvj37aN0vvkYCeVm-65" value="" style="shape=cube;whiteSpace=wrap;html=1;boundedLbl=1;backgroundOutline=1;darkOpacity=0.05;darkOpacity2=0.1;" parent="1" vertex="1">
          <mxGeometry x="1020" y="1160" width="30" height="100" as="geometry" />
        </mxCell>
        <mxCell id="Ovq9rvj37aN0vvkYCeVm-66" value="&lt;font face=&quot;Comic Sans MS&quot;&gt;Conv&lt;/font&gt;" style="edgeLabel;html=1;align=center;verticalAlign=middle;resizable=0;points=[];" parent="1" vertex="1" connectable="0">
          <mxGeometry x="970.0000000000005" y="1239.9999999999998" as="geometry">
            <mxPoint x="-74" y="-75" as="offset" />
          </mxGeometry>
        </mxCell>
        <mxCell id="Ovq9rvj37aN0vvkYCeVm-67" value="&lt;font face=&quot;Comic Sans MS&quot;&gt;Conv&lt;/font&gt;" style="edgeLabel;html=1;align=center;verticalAlign=middle;resizable=0;points=[];" parent="1" vertex="1" connectable="0">
          <mxGeometry x="1020.0000000000005" y="1299.9999999999998" as="geometry">
            <mxPoint x="-74" y="-75" as="offset" />
          </mxGeometry>
        </mxCell>
        <mxCell id="Ovq9rvj37aN0vvkYCeVm-68" style="edgeStyle=orthogonalEdgeStyle;rounded=0;orthogonalLoop=1;jettySize=auto;html=1;exitX=1;exitY=0.51;exitDx=0;exitDy=0;exitPerimeter=0;entryX=0.5;entryY=1;entryDx=0;entryDy=0;" parent="1" source="Ovq9rvj37aN0vvkYCeVm-12" target="Ovq9rvj37aN0vvkYCeVm-78" edge="1">
          <mxGeometry relative="1" as="geometry">
            <mxPoint x="1160" y="1050" as="targetPoint" />
            <mxPoint x="265" y="1010" as="sourcePoint" />
            <Array as="points">
              <mxPoint x="500" y="1001" />
              <mxPoint x="500" y="1050" />
              <mxPoint x="1120" y="1050" />
            </Array>
          </mxGeometry>
        </mxCell>
        <mxCell id="Ovq9rvj37aN0vvkYCeVm-69" value="" style="shape=sumEllipse;perimeter=ellipsePerimeter;whiteSpace=wrap;html=1;backgroundOutline=1;" parent="1" vertex="1">
          <mxGeometry x="940" y="1030" width="40" height="40" as="geometry" />
        </mxCell>
        <mxCell id="Ovq9rvj37aN0vvkYCeVm-70" value="" style="shape=orEllipse;perimeter=ellipsePerimeter;whiteSpace=wrap;html=1;backgroundOutline=1;" parent="1" vertex="1">
          <mxGeometry x="1020" y="1030" width="40" height="40" as="geometry" />
        </mxCell>
        <mxCell id="Ovq9rvj37aN0vvkYCeVm-71" value="" style="shape=cube;whiteSpace=wrap;html=1;boundedLbl=1;backgroundOutline=1;darkOpacity=0.05;darkOpacity2=0.1;" parent="1" vertex="1">
          <mxGeometry x="806" y="950" width="21.5" height="100" as="geometry" />
        </mxCell>
        <mxCell id="Ovq9rvj37aN0vvkYCeVm-73" value="" style="endArrow=classic;html=1;" parent="1" edge="1">
          <mxGeometry width="50" height="50" relative="1" as="geometry">
            <mxPoint x="500" y="1000" as="sourcePoint" />
            <mxPoint x="803.5" y="999.5" as="targetPoint" />
            <Array as="points">
              <mxPoint x="773.5" y="999.5" />
            </Array>
          </mxGeometry>
        </mxCell>
        <mxCell id="Ovq9rvj37aN0vvkYCeVm-76" value="" style="endArrow=classic;html=1;" parent="1" edge="1">
          <mxGeometry width="50" height="50" relative="1" as="geometry">
            <mxPoint x="830" y="1000" as="sourcePoint" />
            <mxPoint x="1045" y="999.5" as="targetPoint" />
            <Array as="points">
              <mxPoint x="1015" y="999.5" />
            </Array>
          </mxGeometry>
        </mxCell>
        <mxCell id="Ovq9rvj37aN0vvkYCeVm-83" style="edgeStyle=none;rounded=0;orthogonalLoop=1;jettySize=auto;html=1;exitX=1;exitY=0.5;exitDx=0;exitDy=0;entryX=0.044;entryY=0.493;entryDx=0;entryDy=0;entryPerimeter=0;" parent="1" source="Ovq9rvj37aN0vvkYCeVm-78" target="Ovq9rvj37aN0vvkYCeVm-82" edge="1">
          <mxGeometry relative="1" as="geometry" />
        </mxCell>
        <mxCell id="Ovq9rvj37aN0vvkYCeVm-78" value="&lt;font face=&quot;Comic Sans MS&quot; style=&quot;font-size: 14px&quot;&gt;M x I + (1 - M) x T&lt;/font&gt;" style="rounded=1;whiteSpace=wrap;html=1;" parent="1" vertex="1">
          <mxGeometry x="1050" y="980" width="140" height="40" as="geometry" />
        </mxCell>
        <mxCell id="Ovq9rvj37aN0vvkYCeVm-79" value="&lt;font style=&quot;font-size: 18px&quot; face=&quot;Comic Sans MS&quot;&gt;T&lt;/font&gt;" style="text;html=1;resizable=0;autosize=1;align=center;verticalAlign=middle;points=[];fillColor=none;strokeColor=none;rounded=0;" parent="1" vertex="1">
          <mxGeometry x="1105" y="1060" width="30" height="20" as="geometry" />
        </mxCell>
        <mxCell id="Ovq9rvj37aN0vvkYCeVm-80" value="&lt;font style=&quot;font-size: 18px&quot; face=&quot;Comic Sans MS&quot;&gt;I&lt;/font&gt;" style="text;html=1;resizable=0;autosize=1;align=center;verticalAlign=middle;points=[];fillColor=none;strokeColor=none;rounded=0;" parent="1" vertex="1">
          <mxGeometry x="1105" y="910" width="30" height="20" as="geometry" />
        </mxCell>
        <mxCell id="Ovq9rvj37aN0vvkYCeVm-81" value="&lt;font style=&quot;font-size: 18px&quot; face=&quot;Comic Sans MS&quot;&gt;M&lt;/font&gt;" style="text;html=1;resizable=0;autosize=1;align=center;verticalAlign=middle;points=[];fillColor=none;strokeColor=none;rounded=0;" parent="1" vertex="1">
          <mxGeometry x="980" y="970" width="30" height="20" as="geometry" />
        </mxCell>
        <mxCell id="Ovq9rvj37aN0vvkYCeVm-82" value="" style="shape=cube;whiteSpace=wrap;html=1;boundedLbl=1;backgroundOutline=1;darkOpacity=0.05;darkOpacity2=0.1;" parent="1" vertex="1">
          <mxGeometry x="1410" y="950" width="30" height="100" as="geometry" />
        </mxCell>
        <mxCell id="Ovq9rvj37aN0vvkYCeVm-84" value="&lt;font style=&quot;font-size: 18px&quot; face=&quot;Comic Sans MS&quot;&gt;Output feature&lt;/font&gt;" style="text;html=1;resizable=0;autosize=1;align=center;verticalAlign=middle;points=[];fillColor=none;strokeColor=none;rounded=0;" parent="1" vertex="1">
          <mxGeometry x="1350" y="1070" width="150" height="20" as="geometry" />
        </mxCell>
        <mxCell id="SDwkRg94ncnZj0nEMJ3i-4" value="&lt;font style=&quot;font-size: 18px&quot; face=&quot;Comic Sans MS&quot;&gt;MDFMM&lt;/font&gt;" style="text;html=1;resizable=0;autosize=1;align=center;verticalAlign=middle;points=[];fillColor=none;strokeColor=none;rounded=0;" vertex="1" parent="1">
          <mxGeometry x="300" y="829" width="90" height="20" as="geometry" />
        </mxCell>
        <mxCell id="SDwkRg94ncnZj0nEMJ3i-5" value="&lt;font style=&quot;font-size: 18px&quot; face=&quot;Comic Sans MS&quot;&gt;Conv + Sigmoid&lt;/font&gt;" style="text;html=1;resizable=0;autosize=1;align=center;verticalAlign=middle;points=[];fillColor=none;strokeColor=none;rounded=0;" vertex="1" parent="1">
          <mxGeometry x="580" y="970" width="140" height="20" as="geometry" />
        </mxCell>
        <mxCell id="SDwkRg94ncnZj0nEMJ3i-6" style="edgeStyle=orthogonalEdgeStyle;rounded=0;orthogonalLoop=1;jettySize=auto;html=1;exitX=0;exitY=0;exitDx=30;exitDy=60;exitPerimeter=0;" edge="1" parent="1" source="SDwkRg94ncnZj0nEMJ3i-9">
          <mxGeometry relative="1" as="geometry">
            <mxPoint x="1310" y="1170" as="targetPoint" />
            <Array as="points">
              <mxPoint x="1210" y="1170" />
            </Array>
          </mxGeometry>
        </mxCell>
        <mxCell id="SDwkRg94ncnZj0nEMJ3i-7" value="&lt;font face=&quot;Comic Sans MS&quot;&gt;Conv&lt;/font&gt;" style="edgeLabel;html=1;align=center;verticalAlign=middle;resizable=0;points=[];" vertex="1" connectable="0" parent="SDwkRg94ncnZj0nEMJ3i-6">
          <mxGeometry x="0.0848" y="2" relative="1" as="geometry">
            <mxPoint y="-8" as="offset" />
          </mxGeometry>
        </mxCell>
        <mxCell id="SDwkRg94ncnZj0nEMJ3i-8" style="rounded=0;orthogonalLoop=1;jettySize=auto;html=1;exitX=0;exitY=0;exitDx=20;exitDy=10;exitPerimeter=0;entryX=0;entryY=0;entryDx=0;entryDy=40;entryPerimeter=0;" edge="1" parent="1" source="SDwkRg94ncnZj0nEMJ3i-9" target="SDwkRg94ncnZj0nEMJ3i-11">
          <mxGeometry relative="1" as="geometry" />
        </mxCell>
        <mxCell id="SDwkRg94ncnZj0nEMJ3i-9" value="" style="shape=cube;whiteSpace=wrap;html=1;boundedLbl=1;backgroundOutline=1;darkOpacity=0.05;darkOpacity2=0.1;" vertex="1" parent="1">
          <mxGeometry x="1180" y="1120" width="30" height="100" as="geometry" />
        </mxCell>
        <mxCell id="SDwkRg94ncnZj0nEMJ3i-10" style="edgeStyle=none;rounded=0;orthogonalLoop=1;jettySize=auto;html=1;exitX=0;exitY=0;exitDx=20;exitDy=10;exitPerimeter=0;" edge="1" parent="1" source="SDwkRg94ncnZj0nEMJ3i-11" target="SDwkRg94ncnZj0nEMJ3i-15">
          <mxGeometry relative="1" as="geometry" />
        </mxCell>
        <mxCell id="SDwkRg94ncnZj0nEMJ3i-11" value="" style="shape=cube;whiteSpace=wrap;html=1;boundedLbl=1;backgroundOutline=1;darkOpacity=0.05;darkOpacity2=0.1;" vertex="1" parent="1">
          <mxGeometry x="1230" y="1040" width="30" height="100" as="geometry" />
        </mxCell>
        <mxCell id="SDwkRg94ncnZj0nEMJ3i-12" style="edgeStyle=none;rounded=0;orthogonalLoop=1;jettySize=auto;html=1;exitX=0;exitY=0;exitDx=20;exitDy=10;exitPerimeter=0;entryX=0.5;entryY=1;entryDx=0;entryDy=0;" edge="1" parent="1" source="SDwkRg94ncnZj0nEMJ3i-13" target="SDwkRg94ncnZj0nEMJ3i-16">
          <mxGeometry relative="1" as="geometry" />
        </mxCell>
        <mxCell id="SDwkRg94ncnZj0nEMJ3i-13" value="" style="shape=cube;whiteSpace=wrap;html=1;boundedLbl=1;backgroundOutline=1;darkOpacity=0.05;darkOpacity2=0.1;" vertex="1" parent="1">
          <mxGeometry x="1310.5" y="1120" width="30" height="100" as="geometry" />
        </mxCell>
        <mxCell id="SDwkRg94ncnZj0nEMJ3i-14" value="&lt;font face=&quot;Comic Sans MS&quot;&gt;Conv&lt;/font&gt;" style="edgeLabel;html=1;align=center;verticalAlign=middle;resizable=0;points=[];" vertex="1" connectable="0" parent="1">
          <mxGeometry x="1270.0000000000005" y="1169.9999999999998" as="geometry">
            <mxPoint x="-74" y="-75" as="offset" />
          </mxGeometry>
        </mxCell>
        <mxCell id="SDwkRg94ncnZj0nEMJ3i-15" value="" style="shape=sumEllipse;perimeter=ellipsePerimeter;whiteSpace=wrap;html=1;backgroundOutline=1;" vertex="1" parent="1">
          <mxGeometry x="1230" y="980" width="40" height="40" as="geometry" />
        </mxCell>
        <mxCell id="SDwkRg94ncnZj0nEMJ3i-16" value="" style="shape=orEllipse;perimeter=ellipsePerimeter;whiteSpace=wrap;html=1;backgroundOutline=1;" vertex="1" parent="1">
          <mxGeometry x="1310" y="980" width="40" height="40" as="geometry" />
        </mxCell>
      </root>
    </mxGraphModel>
  </diagram>
</mxfile>
